<svg id="Layer_1" data-name="Layer 1" xmlns="http://www.w3.org/2000/svg" viewBox="0 0 408.84 271.08"><defs><style>.cls-1{fill:#4c4c51;opacity:0.49;}</style></defs><path class="cls-1" d="M247.47,391.31c-36.17,0-72.35.22-108.52-.09-18.54-.16-36.71-3.05-52.87-13C56.27,359.92,44,319.11,57.4,285.85c8.52-21.15,23.45-35.38,44.19-43.82,5.23-2.13,7.43-4.81,8.63-10.81,7.54-37.8,24-69.8,58.64-90.65,42.27-25.44,85.47-26.32,129.18-6,20.33,9.43,36,25.64,47.55,44.93,5.48,9.12,11.18,13.84,22.94,14.61,52.76,3.46,93.38,47.22,92.29,98.76-.81,38.64-18.85,68.12-52.46,86.72-15.83,8.76-34.05,11.73-52.38,11.75Q301.73,391.36,247.47,391.31Z" transform="translate(-52 -120.3)"/></svg>