<svg id="Layer_1" data-name="Layer 1" xmlns="http://www.w3.org/2000/svg" viewBox="0 0 426.64 166.95"><defs><style>.cls-1{fill:#f0f0f5;}</style></defs><path class="cls-1" d="M129,339.68c-15.33-.08-30.07-3-43.5-10.52C63.12,316.6,49,297.88,44.17,272.44c-5.56-29.05,1.82-54.85,20.27-77.35a70,70,0,0,1,29.85-21.52,14.13,14.13,0,0,1,3.91-.82c4.68-.3,7.17,2.71,5.61,7.19a91.06,91.06,0,0,0-4.94,20.14c-2.85,26.21,2.21,50,22.69,68.41,10.75,9.69,23.85,14.24,38,16.08a91.84,91.84,0,0,0,39.66-3.39c2.52-.79,5.24-1.37,7.49,1s1.47,5.16.47,7.83c-5.52,14.79-15.26,26.13-28.36,34.73C163,335.19,147.86,339.71,129,339.68Z" transform="translate(-42.36 -172.73)"/><path class="cls-1" d="M386.54,217.21a39.1,39.1,0,0,1,38.79,39c0,20.77-17,39.09-39.14,39a39.18,39.18,0,0,1-38.84-39.34C347.43,234.61,365.11,217.18,386.54,217.21Z" transform="translate(-42.36 -172.73)"/><path class="cls-1" d="M332.43,317c-4.93,0-8.63-5.9-5.89-9.84a56.23,56.23,0,0,1,14-14,6.43,6.43,0,0,1,8.53,1.39,6.26,6.26,0,0,1-.24,8.59,145.91,145.91,0,0,1-13,12.62A4.21,4.21,0,0,1,332.43,317Z" transform="translate(-42.36 -172.73)"/><path class="cls-1" d="M393.24,188.12c0,2.66.09,5.33,0,8a6.77,6.77,0,0,1-6.44,6.59c-3.57.18-6.39-1.8-6.84-5.58a73.73,73.73,0,0,1,0-18.42c.46-3.44,3.26-5.44,6.67-5.32a6.55,6.55,0,0,1,6.54,6c.21,2.89,0,5.8,0,8.7Z" transform="translate(-42.36 -172.73)"/><path class="cls-1" d="M393.2,324.44c0,2.67.1,5.34,0,8a6.7,6.7,0,0,1-6.49,6.55c-3.85.21-6.24-1.79-6.76-5.91a96.14,96.14,0,0,1-.19-16.71c.23-4.38,3.2-6.88,7.09-6.64s6.3,3.17,6.38,7.42c0,2.43,0,4.86,0,7.28Z" transform="translate(-42.36 -172.73)"/><path class="cls-1" d="M429.21,220.24c-3,.09-5.21-1-6.31-3.61s-1-5.22,1.17-7.39c3.94-3.94,7.82-7.94,11.87-11.76a6.63,6.63,0,0,1,9.54,9.2c-3.78,4.08-7.8,7.95-11.76,11.87A5.82,5.82,0,0,1,429.21,220.24Z" transform="translate(-42.36 -172.73)"/><path class="cls-1" d="M447.12,309.72a6.65,6.65,0,0,1-3.5,6.28c-2.31,1.36-4.86,1.39-6.81-.37-4.56-4.13-9-8.38-13.25-12.87-2.13-2.27-1.61-6.25.47-8.32,2.44-2.43,6-3.1,8.6-1a120.7,120.7,0,0,1,13.49,13.17A4.13,4.13,0,0,1,447.12,309.72Z" transform="translate(-42.36 -172.73)"/><path class="cls-1" d="M332.62,195.91a6,6,0,0,1,4.59,1.87c3.62,3.59,7.27,7.14,10.77,10.84,3.17,3.36,3.22,6.9.41,9.66s-6.59,2.69-9.95-.58q-5.32-5.22-10.52-10.58a6.36,6.36,0,0,1-1.14-7.72A5.75,5.75,0,0,1,332.62,195.91Z" transform="translate(-42.36 -172.73)"/><path class="cls-1" d="M454.45,262.63c-2.78,0-5.57.11-8.34,0a6.61,6.61,0,0,1-6.16-6.39c0-3.07,2.7-6.23,5.87-6.34,5.67-.2,11.36-.21,17,0a6.46,6.46,0,0,1,6.15,6.41,6.69,6.69,0,0,1-6.58,6.38c-2.66.11-5.32,0-8,0Z" transform="translate(-42.36 -172.73)"/><path class="cls-1" d="M318.43,262.64c-2.79,0-5.59.14-8.37,0a6.4,6.4,0,0,1,.09-12.78c5.58-.16,11.17-.14,16.74,0a6.52,6.52,0,0,1,5.92,6.27,6.24,6.24,0,0,1-6,6.48c-2.78.16-5.58,0-8.37,0Z" transform="translate(-42.36 -172.73)"/></svg>